<?xml version="1.0" encoding="utf-8"?>
<!-- Generator: Adobe Illustrator 27.0.0, SVG Export Plug-In . SVG Version: 6.00 Build 0)  -->
<svg version="1.1" id="Layer_2_00000119832271535166640570000016338222300207047054_"
	 xmlns="http://www.w3.org/2000/svg" xmlns:xlink="http://www.w3.org/1999/xlink" x="0px" y="0px" viewBox="0 0 28 38.07"
	 style="enable-background:new 0 0 28 38.07;" xml:space="preserve">
<style type="text/css">
	.st0{fill:#231F20;}
</style>
<g>
	<path class="st0" d="M13.47,20.06c0.86,0,1.58-0.31,2.16-0.93s0.87-1.37,0.87-2.25V9.35c0-0.83-0.29-1.54-0.88-2.12
		s-1.31-0.88-2.15-0.88s-1.55,0.29-2.15,0.88c-0.59,0.58-0.88,1.29-0.88,2.12v7.53c0,0.88,0.29,1.63,0.87,2.25
		S12.61,20.06,13.47,20.06z"/>
	<path class="st0" d="M12.57,25.12L12.57,25.12v4.08h1.8v-4.08C13.72,25.18,13.12,25.18,12.57,25.12z"/>
	<path class="st0" d="M20.07,16.88c0,1.82-0.65,3.35-1.93,4.59c-1.29,1.24-2.85,1.86-4.68,1.86s-3.32-0.6-4.59-1.79
		c0,0-0.05-0.04-0.07-0.07H8.79c-1.28-1.24-1.93-2.77-1.93-4.59h-1.8c0,2.12,0.72,3.96,2.16,5.52c0.13,0.14,0.26,0.26,0.4,0.4
		c1.37,1.31,3.01,2.08,4.95,2.27v0.01c0.55,0.05,1.16,0.05,1.8,0c2.12-0.23,3.9-1.12,5.34-2.68v-0.01c1.44-1.56,2.16-3.4,2.16-5.52
		H20.07z"/>
</g>
</svg>
